<?xml version="1.0" standalone="no"?>
<!DOCTYPE svg PUBLIC "-//W3C//DTD SVG 20010904//EN"
 "http://www.w3.org/TR/2001/REC-SVG-20010904/DTD/svg10.dtd">
<svg version="1.0" xmlns="http://www.w3.org/2000/svg"
 width="1024.000000pt" height="1024.000000pt" viewBox="0 0 1024.000000 1024.000000"
 preserveAspectRatio="xMidYMid meet">

<g transform="translate(0.000000,1024.000000) scale(0.100000,-0.100000)"
fill="#000000" stroke="none">
<path d="M3102 10229 c-78 -13 -198 -55 -267 -94 -208 -117 -349 -297 -417
-532 l-23 -78 0 -1335 0 -1335 23 -79 c88 -304 316 -526 625 -608 81 -22 94
-22 995 -25 l912 -4 0 -509 0 -510 -1723 0 -1723 0 -44 -23 c-25 -12 -55 -37
-67 -56 l-23 -34 0 -567 0 -567 23 -33 c45 -67 108 -93 185 -77 53 10 107 61
121 114 7 24 11 200 11 471 l0 432 1620 0 1619 0 3 -458 3 -459 28 -36 c36
-48 79 -69 137 -69 58 0 101 21 137 69 l28 36 3 459 3 458 1619 0 1620 0 0
-432 c0 -271 4 -447 11 -471 14 -53 68 -104 121 -114 77 -16 140 10 185 77
l23 33 0 567 0 567 -23 34 c-12 19 -42 44 -67 56 l-44 23 -1723 0 -1723 0 -2
628 -3 629 -28 36 c-59 77 28 71 -1117 77 l-1025 5 -55 24 c-127 56 -210 131
-270 242 -62 117 -60 63 -60 1425 0 799 4 1260 10 1295 36 193 196 358 391
404 96 22 3881 22 3977 0 191 -45 342 -195 387 -386 22 -96 22 -2522 0 -2618
-39 -163 -152 -293 -316 -363 l-54 -23 -686 -5 -685 -5 -43 -28 c-46 -31 -81
-91 -81 -142 0 -42 32 -107 65 -133 15 -12 45 -27 67 -33 27 -7 253 -9 696 -6
635 3 660 4 739 25 326 86 569 336 634 656 19 94 19 134 17 1404 l-3 1307 -23
72 c-94 307 -298 510 -604 605 l-73 23 -1995 1 c-1137 1 -2018 -2 -2048 -7z"/>
<path d="M3840 8848 c-67 -46 -93 -109 -77 -186 10 -53 61 -107 114 -121 57
-16 2108 -13 2148 2 75 29 115 86 115 163 0 59 -26 105 -79 141 l-34 23 -1077
0 -1077 0 -33 -22z"/>
<path d="M3855 7834 c-67 -35 -97 -83 -97 -154 0 -58 21 -101 69 -137 l36 -28
1257 0 1257 0 36 28 c48 36 69 79 69 137 0 58 -21 101 -69 137 l-36 28 -1246
3 c-1116 2 -1249 0 -1276 -14z"/>
<path d="M228 3392 c-69 -25 -134 -75 -169 -129 -63 -100 -60 -10 -57 -1579
l3 -1429 28 -56 c32 -67 109 -142 175 -172 l47 -22 1280 0 1280 0 56 26 c72
34 134 96 168 168 l26 56 0 1455 0 1455 -23 47 c-36 71 -96 134 -160 165 l-57
28 -1275 2 c-1183 2 -1278 1 -1322 -15z m2502 -1687 l0 -1365 -1195 0 -1195 0
0 1365 0 1365 1195 0 1195 0 0 -1365z"/>
<path d="M784 2371 c-77 -35 -116 -116 -94 -195 13 -48 58 -98 103 -115 18 -7
163 -11 403 -11 411 0 418 1 467 59 74 89 47 215 -57 262 -38 17 -72 19 -411
19 -339 0 -373 -2 -411 -19z"/>
<path d="M795 1695 c-50 -18 -91 -62 -105 -115 -14 -50 -6 -93 25 -141 47 -72
9 -69 822 -69 690 0 730 1 763 19 42 22 77 70 86 118 15 78 -43 170 -121 192
-27 7 -260 11 -735 11 -573 -1 -702 -3 -735 -15z"/>
<path d="M768 1000 c-39 -21 -72 -67 -83 -117 -16 -77 43 -170 120 -192 27 -7
262 -11 740 -11 660 0 702 2 741 19 128 58 136 238 14 302 -33 18 -73 19 -765
19 -701 -1 -731 -2 -767 -20z"/>
<path d="M3796 3385 c-76 -31 -146 -100 -183 -179 l-28 -61 -3 -1395 c-2 -992
0 -1414 8 -1460 21 -120 87 -206 199 -259 l56 -26 1250 -3 c1397 -3 1324 -7
1421 66 56 43 108 115 126 175 10 33 13 348 13 1472 l0 1430 -29 62 c-37 81
-112 153 -189 181 l-58 22 -1262 0 -1262 0 -59 -25z m2514 -1680 l0 -1365
-1190 0 -1190 0 0 1365 0 1365 1190 0 1190 0 0 -1365z"/>
<path d="M4364 2371 c-55 -25 -87 -71 -92 -135 -5 -66 15 -115 64 -152 l37
-29 396 -3 c395 -2 396 -2 436 21 114 64 108 239 -11 297 -38 19 -61 20 -415
20 -343 0 -377 -2 -415 -19z"/>
<path d="M4385 1698 c-16 -6 -43 -22 -58 -37 -86 -79 -76 -202 22 -268 l34
-23 737 0 737 0 34 23 c52 35 79 82 79 139 0 77 -46 142 -119 167 -46 15
-1422 14 -1466 -1z"/>
<path d="M4349 997 c-106 -71 -107 -215 -2 -287 l37 -25 736 0 736 0 37 25
c105 72 104 216 -2 287 l-34 23 -737 0 -737 0 -34 -23z"/>
<path d="M7394 3392 c-96 -33 -176 -117 -208 -218 -15 -44 -16 -190 -14 -1484
l3 -1435 26 -56 c34 -72 96 -134 168 -168 l56 -26 1280 0 1280 0 56 28 c67 32
142 109 172 175 l22 47 0 1450 0 1450 -27 57 c-32 69 -96 135 -163 168 l-50
25 -1275 2 c-1197 2 -1278 1 -1326 -15z m2506 -1687 l0 -1365 -1195 0 -1195 0
0 1365 0 1365 1195 0 1195 0 0 -1365z"/>
<path d="M7955 2376 c-37 -17 -80 -62 -94 -99 -28 -73 5 -162 74 -202 l43 -26
395 3 c383 3 396 4 424 24 15 11 39 36 51 55 32 46 28 138 -7 188 -49 69 -62
71 -481 70 -291 0 -382 -3 -405 -13z"/>
<path d="M7965 1695 c-136 -48 -151 -239 -25 -306 33 -18 73 -19 763 -19 658
0 732 2 764 17 39 18 78 71 88 120 16 77 -43 170 -120 192 -27 7 -260 11 -735
11 -573 -1 -702 -3 -735 -15z"/>
<path d="M7940 1001 c-122 -64 -114 -244 14 -302 39 -17 81 -19 741 -19 478 0
713 4 740 11 141 39 164 243 34 309 -37 19 -62 20 -766 20 -690 0 -730 -1
-763 -19z"/>
</g>
</svg>
