<svg width="22" height="22" viewBox="0 0 22 22" fill="none" xmlns="http://www.w3.org/2000/svg">
<g id="magic tool=active">
<path id="Vector" d="M6.5025 3.6025L4.0025 5.0025L5.4025 2.5025L4.0025 0.00250244L6.5025 1.4025L9.0025 0.00250244L7.6025 2.5025L9.0025 5.0025L6.5025 3.6025ZM18.5025 13.4025L21.0025 12.0025L19.6025 14.5025L21.0025 17.0025L18.5025 15.6025L16.0025 17.0025L17.4025 14.5025L16.0025 12.0025L18.5025 13.4025ZM21.0025 0.00250244L19.6025 2.5025L21.0025 5.0025L18.5025 3.6025L16.0025 5.0025L17.4025 2.5025L16.0025 0.00250244L18.5025 1.4025L21.0025 0.00250244ZM12.3425 10.7825L14.7825 8.3425L12.6625 6.2225L10.2225 8.6625L12.3425 10.7825ZM13.3725 5.2925L15.7125 7.6325C16.1025 8.0025 16.1025 8.6525 15.7125 9.0425L4.0425 20.7125C3.6525 21.1025 3.0025 21.1025 2.6325 20.7125L0.2925 18.3725C-0.0975 18.0025 -0.0975 17.3525 0.2925 16.9625L11.9625 5.2925C12.3525 4.9025 13.0025 4.9025 13.3725 5.2925Z" fill="#00F153"/>
</g>
</svg>
