<svg width="22" height="23" viewBox="0 0 22 23" fill="none" xmlns="http://www.w3.org/2000/svg">
<g id="magic tool">
<path id="Vector" d="M7.49859 4.59878L4.99859 5.99878L6.39859 3.49878L4.99859 0.998779L7.49859 2.39878L9.99859 0.998779L8.59859 3.49878L9.99859 5.99878L7.49859 4.59878ZM19.4986 14.3988L21.9986 12.9988L20.5986 15.4988L21.9986 17.9988L19.4986 16.5988L16.9986 17.9988L18.3986 15.4988L16.9986 12.9988L19.4986 14.3988ZM21.9986 0.998779L20.5986 3.49878L21.9986 5.99878L19.4986 4.59878L16.9986 5.99878L18.3986 3.49878L16.9986 0.998779L19.4986 2.39878L21.9986 0.998779ZM13.3386 11.7788L15.7786 9.33878L13.6586 7.21878L11.2186 9.65878L13.3386 11.7788ZM14.3686 6.28878L16.7086 8.62878C17.0986 8.99878 17.0986 9.64878 16.7086 10.0388L5.03859 21.7088C4.64859 22.0988 3.99859 22.0988 3.62859 21.7088L1.28859 19.3688C0.898594 18.9988 0.898594 18.3488 1.28859 17.9588L12.9586 6.28878C13.3486 5.89878 13.9986 5.89878 14.3686 6.28878Z" fill="#2D2B2F"/>
</g>
</svg>
