<svg width="16" height="17" viewBox="0 0 16 17" fill="none" xmlns="http://www.w3.org/2000/svg">
<g id="ei:plus">
<path id="Vector" d="M7.99859 13.94C4.99059 13.94 2.55859 11.508 2.55859 8.5C2.55859 5.492 4.99059 3.06 7.99859 3.06C11.0066 3.06 13.4386 5.492 13.4386 8.5C13.4386 11.508 11.0066 13.94 7.99859 13.94ZM7.99859 3.7C5.34259 3.7 3.19859 5.844 3.19859 8.5C3.19859 11.156 5.34259 13.3 7.99859 13.3C10.6546 13.3 12.7986 11.156 12.7986 8.5C12.7986 5.844 10.6546 3.7 7.99859 3.7Z" fill="black"/>
<path id="Vector_2" d="M5.12109 8.17999H10.8811V8.81999H5.12109V8.17999Z" fill="black"/>
<path id="Vector_3" d="M7.67969 5.62H8.31969V11.38H7.67969V5.62Z" fill="black"/>
</g>
</svg>
