<svg width="24" height="24" viewBox="0 0 24 24" fill="none" xmlns="http://www.w3.org/2000/svg">
<g id="micro=active">
<path id="Vector" d="M12 16.5517C13.7982 16.5501 15.5222 15.9828 16.7937 14.9743C18.0653 13.9659 18.7805 12.5986 18.7826 11.1724V5.37931C18.7826 3.95263 18.068 2.58438 16.796 1.57556C15.524 0.566747 13.7989 0 12 0C10.2011 0 8.47596 0.566747 7.20397 1.57556C5.93199 2.58438 5.21739 3.95263 5.21739 5.37931V11.1724C5.21946 12.5986 5.93472 13.9659 7.20626 14.9743C8.4778 15.9828 10.2018 16.5501 12 16.5517ZM8.34783 5.37931C8.34783 4.6111 8.73261 3.87435 9.41752 3.33114C10.1024 2.78793 11.0314 2.48276 12 2.48276C12.9686 2.48276 13.8976 2.78793 14.5825 3.33114C15.2674 3.87435 15.6522 4.6111 15.6522 5.37931V11.1724C15.6522 11.9406 15.2674 12.6774 14.5825 13.2206C13.8976 13.7638 12.9686 14.069 12 14.069C11.0314 14.069 10.1024 13.7638 9.41752 13.2206C8.73261 12.6774 8.34783 11.9406 8.34783 11.1724V5.37931ZM13.5652 20.609V22.7586C13.5652 23.0879 13.4003 23.4036 13.1068 23.6364C12.8132 23.8692 12.4151 24 12 24C11.5849 24 11.1868 23.8692 10.8932 23.6364C10.5997 23.4036 10.4348 23.0879 10.4348 22.7586V20.609C7.54961 20.3048 4.90164 19.1806 2.98255 17.4451C1.06347 15.7096 0.00368791 13.4808 0 11.1724C0 10.8432 0.164906 10.5274 0.458441 10.2946C0.751977 10.0618 1.1501 9.93104 1.56522 9.93104C1.98034 9.93104 2.37846 10.0618 2.67199 10.2946C2.96553 10.5274 3.13043 10.8432 3.13043 11.1724C3.13043 13.0381 4.0649 14.8273 5.72827 16.1465C7.39164 17.4658 9.64764 18.2069 12 18.2069C14.3524 18.2069 16.6084 17.4658 18.2717 16.1465C19.9351 14.8273 20.8696 13.0381 20.8696 11.1724C20.8696 10.8432 21.0345 10.5274 21.328 10.2946C21.6215 10.0618 22.0197 9.93104 22.4348 9.93104C22.8499 9.93104 23.248 10.0618 23.5416 10.2946C23.8351 10.5274 24 10.8432 24 11.1724C23.9963 13.4808 22.9365 15.7096 21.0174 17.4451C19.0984 19.1806 16.4504 20.3048 13.5652 20.609Z" fill="#2FEC70"/>
</g>
</svg>
